<?xml version="1.0" encoding="utf-8"?>
<!DOCTYPE svg PUBLIC "-//W3C//DTD SVG 1.0//EN" "http://www.w3.org/TR/2001/REC-SVG-20010904/DTD/svg10.dtd">
<svg version="1.0" xmlns="http://www.w3.org/2000/svg" width="760px" height="1004px" viewBox="0 0 760 1004" preserveAspectRatio="xMidYMid meet">
 <g fill="#fbfbf9">
  <path d="M0 502.14 l0 -502.14 380 0 380 0 0 502.14 0 502.14 -380 0 -380 0 0 -502.14z m453.54 389.42 c1.53 -2.63 2.80 -3.65 5.94 -4.67 8.48 -2.71 14.42 -3.31 27.57 -2.71 7.13 0.25 14.50 0.51 16.46 0.51 2.63 -0.08 4.24 0.59 7.21 2.88 l3.73 3.05 0.25 -3.48 c0.68 -8.82 -4.75 -16.54 -13.49 -19 -7.46 -2.04 -10.94 -3.99 -14.59 -7.97 -5.68 -6.28 -8.40 -13.66 -9.50 -25.87 -0.51 -5.60 -0.85 -6.45 -2.04 -5.94 -2.71 1.27 -8.57 1.44 -8.57 0.25 0 -0.85 -0.25 -0.85 -1.02 -0.08 -0.59 0.59 -2.63 1.02 -4.67 1.02 -2.88 0 -3.65 -0.34 -3.65 -1.44 -0.08 -1.10 -0.42 -0.85 -1.36 0.85 -1.87 3.39 -5.77 3.14 -10.26 -0.68 -4.07 -3.48 -4.50 -3.56 -4.50 -1.27 0 1.36 -0.59 1.70 -2.80 1.70 l-2.88 0 0.08 10.43 c0 11.11 -0.85 15.27 -4.33 19.85 -3.48 4.75 -7.13 6.87 -14.25 8.31 -3.73 0.76 -7.72 1.95 -8.91 2.54 -5.43 2.80 -11.88 12.13 -11.88 16.96 l0 2.29 2.97 -1.87 c1.87 -1.19 4.24 -1.78 6.96 -1.78 2.21 0 9.50 -0.17 16.20 -0.42 11.03 -0.51 12.64 -0.34 18.07 1.36 5.09 1.70 6.36 2.46 8.14 5.26 1.19 1.78 2.38 3.22 2.71 3.22 0.25 0 1.36 -1.53 2.38 -3.31z m-105.26 -21.38 c20.19 -6.11 22.05 -7.89 19.85 -19.42 -0.68 -3.56 -0.85 -7.63 -0.51 -10.69 0.93 -7.46 0.85 -9.50 -0.42 -16.63 -0.93 -5.43 -1.44 -6.62 -2.71 -6.62 -0.85 0 -2.29 -0.34 -3.14 -0.85 -1.36 -0.68 -1.61 -0.42 -2.12 1.78 l-0.59 2.71 -4.83 -0.51 c-3.99 -0.34 -7.38 -1.44 -16.79 -5.43 -0.76 -0.25 -1.10 0.34 -1.10 1.78 0 1.95 -0.34 2.21 -3.14 2.21 -1.87 0 -4.83 -0.93 -7.04 -2.21 -3.31 -1.87 -3.90 -2.04 -4.75 -0.85 -0.51 0.76 -1.19 4.58 -1.36 8.48 -0.59 9.08 -2.63 13.40 -8.91 19.17 -6.62 6.02 -9.58 7.38 -19.08 8.31 -5.43 0.51 -9.50 1.44 -12.21 2.80 -4.58 2.12 -12.13 9.16 -14.17 13.15 l-1.27 2.54 7.29 -0.34 c4.07 -0.17 9.50 0 12.04 0.42 4.50 0.68 4.67 0.85 4.92 3.48 0.34 2.97 0.42 3.05 2.63 1.95 1.36 -0.76 29.60 -4.33 34.27 -4.33 1.53 0 2.38 0.59 2.80 1.95 1.02 3.39 2.04 4.07 3.82 2.80 0.93 -0.59 8.40 -3.14 16.54 -5.68z m195 -36.81 c6.79 -1.27 15.69 -4.41 15.69 -5.51 0 -0.34 -1.61 -3.31 -3.56 -6.45 -6.36 -10.60 -14.42 -29.35 -19.68 -45.89 -4.67 -14.93 -9.84 -38.17 -9.84 -44.36 0 -2.04 -1.78 2.21 -5.51 13.23 -2.97 8.91 -7.89 21.63 -10.94 28.25 -6.45 14.17 -19.68 38.85 -24.85 46.23 -3.56 5.17 -3.56 5.17 -1.61 5.68 1.10 0.34 4.50 1.53 7.46 2.80 12.47 4.92 31.21 8.31 42.24 7.46 2.54 -0.17 7.38 -0.85 10.60 -1.44z m-114.17 -13.83 c-3.99 -6.87 -8.48 -19.42 -11.28 -31.64 -1.10 -4.83 -2.12 -8.14 -2.12 -7.29 -0.08 2.12 -4.24 1.87 -9.25 -0.76 -3.22 -1.61 -6.28 -2.38 -13.23 -2.97 -5 -0.51 -9.75 -0.68 -10.52 -0.51 -0.76 0.25 0.17 0.42 2.21 0.51 3.48 0.08 3.56 0.17 3.56 2.97 0 2.21 -1.19 4.58 -4.67 9.42 -2.54 3.65 -4.67 6.87 -4.67 7.29 0 0.42 0.76 0.76 1.78 0.76 1.02 0 3.90 1.95 6.45 4.24 6.36 5.85 13.66 10.94 22.56 15.69 7.80 4.24 17.56 7.97 20.70 8.06 1.70 0 1.61 -0.34 -1.53 -5.77z m254.13 -24.94 c-1.02 -4.75 -13.06 -38.51 -19.25 -54.12 -3.22 -8.14 -10.77 -26.29 -16.79 -40.29 -22.05 -51.91 -28.08 -69.13 -41.65 -119.51 -16.20 -60.31 -31.55 -106.20 -46.82 -140.13 -4.58 -10.09 -5 -11.79 -8.74 -30.45 -5.60 -28.50 -17.39 -83.46 -21.63 -100.51 -7.46 -30.20 -14.67 -50.04 -24.77 -68.28 -6.96 -12.47 -28.50 -44.45 -27.48 -40.71 4.75 16.96 6.02 26.38 6.02 44.96 0 18.49 -1.10 26.89 -6.28 45.38 -4.83 17.30 -15.44 42.16 -22.82 53.69 -2.29 3.48 -2.97 3.99 -5.51 3.99 l-2.97 0 -0.25 -4.83 -0.25 -4.83 -6.02 9.33 c-13.91 21.46 -33.84 41.14 -67.26 66.42 -9.92 7.46 -11.71 8.57 -14.67 8.57 l-3.31 0 -3.73 -7.80 c-6.53 -13.83 -8.31 -20.19 -8.74 -31.38 -0.68 -17.47 3.22 -33.67 11.71 -48.52 9.92 -17.30 23.24 -31.72 49.62 -53.52 24.60 -20.36 32.57 -29.18 39.10 -43.26 1.53 -3.39 3.56 -8.91 4.50 -12.38 1.95 -7.21 3.73 -20.02 2.88 -21.38 -0.25 -0.42 -1.36 1.95 -2.29 5.43 -3.31 11.20 -9.25 22.99 -16.88 33.33 -4.24 5.77 -4.33 5.77 -7.80 5.43 -3.39 -0.42 -3.65 -0.25 -5.77 3.14 -3.65 5.68 -8.65 10.94 -18.58 19.59 -7.80 6.70 -9.75 7.97 -12.21 7.97 -2.54 0 -2.88 -0.25 -2.88 -2.21 0 -1.27 0.93 -4.92 2.12 -8.06 5.43 -15.01 7.13 -26.13 7.72 -49.20 0.68 -26.29 0.42 -27.91 -4.16 -36.64 -5.51 -10.52 -15.44 -15.86 -29.35 -15.86 -5.26 0 -21.97 3.05 -21.12 3.82 0.17 0.17 2.88 0.93 6.19 1.70 6.62 1.53 12.13 4.41 14.76 7.72 1.36 1.70 1.78 3.48 1.78 7.21 l0 5 2.88 0 c2.88 0 2.97 0.17 3.56 3.90 0.85 5.85 -0.08 23.58 -1.70 31.30 -1.44 6.79 -4.16 15.10 -12.38 38.85 l-4.41 12.47 -2.80 0 -2.80 0 -1.02 -7.38 c-0.59 -4.16 -1.10 -10.26 -1.19 -13.57 -0.08 -4.33 -0.42 -6.19 -1.10 -6.19 -1.53 0 -1.36 -9.92 0.17 -16.96 0.68 -3.05 1.19 -6.02 1.27 -6.70 0 -0.68 -2.80 2.38 -6.28 6.79 l-6.28 7.97 2.46 0.25 2.54 0.25 -0.59 7.38 c-0.34 4.58 0 12.81 0.85 21.46 3.31 34.18 0.68 62.94 -8.06 87.88 -3.39 9.84 -5.51 13.49 -19.68 34.86 -11.54 17.22 -12.13 17.98 -14.76 17.98 -2.46 0 -2.80 -0.34 -3.56 -3.14 -1.44 -5.26 -3.31 -17.13 -3.90 -24.43 -0.85 -11.20 -1.02 -11.45 -4.24 -11.45 -2.80 0 -2.88 -0.17 -3.48 -3.99 -0.68 -4.83 0.25 -36.30 1.27 -42.24 0.42 -2.29 0.68 -4.33 0.51 -4.50 -0.68 -0.76 -21.38 48.09 -22.99 54.46 -0.51 2.04 -0.34 2.21 2.46 2.21 2.97 0 3.05 0.08 3.56 4.07 0.25 2.21 1.02 6.11 1.53 8.65 1.02 4.24 1.27 4.67 3.56 4.92 2.54 0.25 2.54 0.34 3.99 8.91 0.76 4.75 2.46 12.13 3.73 16.29 3.82 12.38 3.73 14.93 -0.76 23.83 -8.48 16.96 -14.33 34.27 -17.56 52.33 -2.29 12.47 -2.12 13.40 0.76 4.83 4.50 -13.40 4.07 -12.72 7.72 -12.72 l3.14 0 0.51 12.13 c0.25 6.62 0.93 14.42 1.53 17.39 0.93 5.17 1.02 5.26 3.73 5.26 l2.71 0 0.51 7.13 c0.85 10.26 3.90 20.95 11.54 40.21 5.26 13.23 7.21 19.42 8.99 28.25 5 24.94 12.13 49.28 22.05 75.07 4.07 10.60 13.23 30.28 13.74 29.69 0.25 -0.17 -0.42 -5.26 -1.36 -11.28 -3.56 -22.39 -4.58 -36.13 -4.67 -63.02 -0.08 -28.58 0.34 -31.81 6.28 -50.47 3.31 -10.09 4.58 -12.81 13.91 -28.33 6.36 -10.69 12.38 -22.99 12.38 -25.45 0 -1.27 6.53 -1.19 7.29 0 1.02 1.70 1.78 -0.93 2.88 -9.58 l1.02 -8.31 3.31 0 c2.63 0 3.65 0.51 5.85 3.22 l2.71 3.14 -0.51 -14.67 -0.59 -14.67 3.56 0.25 c3.39 0.25 3.90 0.59 7.80 6.11 3.73 5.34 17.81 26.21 22.56 33.59 2.63 4.16 1.78 1.27 -3.56 -11.79 -8.74 -21.38 -21.46 -44.53 -31.89 -58.19 -7.63 -9.92 -7.55 -10.26 4.83 -20.44 5.43 -4.58 16.12 -14.50 23.75 -22.14 13.15 -13.06 14.08 -13.83 17.13 -13.83 3.05 0 3.31 0.17 3.56 2.80 l0.25 2.71 4.58 -4.24 c7.38 -6.87 20.02 -21.97 29.60 -35.37 l8.82 -12.55 3.73 0 3.73 0 0 3.22 c0 1.70 -1.36 7.46 -2.97 12.64 -4.33 14.33 -5.60 21.38 -6.11 35.88 -1.02 29.01 3.65 49.45 17.56 76.68 14.08 27.40 20.10 49.79 22.56 83.89 l0.51 6.53 2.71 0 2.71 0 1.10 7.89 c1.27 9.50 3.48 18.58 7.04 28.42 l2.71 7.38 2.97 -26.97 2.97 -26.97 3.73 0.25 3.73 0.25 9.33 15.18 c16.96 27.65 20.95 35.37 49.03 94.66 24.26 51.32 47.92 89.23 69.13 110.78 7.29 7.38 14.17 13.06 15.86 13.06 0.51 0 0.59 -1.19 0.25 -2.71z m-386.36 -32.57 c0 -0.25 -0.76 -1.44 -1.70 -2.63 -1.78 -2.29 -2.04 -1.95 -1.19 1.27 0.42 1.61 2.88 2.80 2.88 1.36z m115.95 -10.26 c-0.25 -0.85 -0.42 -0.17 -0.42 1.44 0 1.61 0.17 2.29 0.42 1.53 0.17 -0.85 0.17 -2.21 0 -2.97z m-0.85 -15.27 c-0.25 -0.85 -0.42 -0.17 -0.42 1.44 0 1.61 0.17 2.29 0.42 1.53 0.17 -0.85 0.17 -2.21 0 -2.97z m-256.25 -12.13 c28.16 -14.25 61.41 -54.12 83.21 -99.83 l5.34 -11.28 3.05 0 3.14 0 -0.59 -8.65 c-0.93 -14 -3.82 -44.87 -5.60 -60.05 -4.58 -38.93 -6.11 -71.50 -4.33 -95.85 0.51 -7.72 1.19 -15.35 1.44 -16.96 0.25 -1.95 -0.68 -0.25 -2.71 4.67 -14.42 35.29 -23.41 56.83 -29.60 71.25 -24.60 56.75 -37.15 88.21 -46.40 116.21 -13.23 40.04 -22.22 82.62 -20.19 96.10 0.59 3.56 3.56 7.80 5.60 7.80 0.51 0 3.99 -1.53 7.63 -3.39z m257.09 -2.29 c-0.25 -0.85 -0.42 -0.17 -0.42 1.44 0 1.61 0.17 2.29 0.42 1.53 0.17 -0.85 0.17 -2.21 0 -2.97z m-352.60 -507.91 c5.51 -4.16 6.70 -4.67 10.35 -4.67 3.90 0 4.07 0.08 4.07 2.46 l0 2.54 10.60 -5.09 c20.27 -9.58 43.43 -18.07 70.83 -25.79 31.13 -8.82 47.75 -12.04 67.69 -12.89 l11.20 -0.51 0 -2.29 c0 -1.27 0.51 -2.71 1.10 -3.22 0.59 -0.51 5.17 -1.53 10.26 -2.29 14.76 -2.21 27.91 -6.53 48.01 -15.69 5.34 -2.46 13.15 -5.34 17.39 -6.36 15.61 -3.99 34.69 -3.56 53.27 1.19 l9.50 2.46 -2.54 -2.04 c-4.16 -3.31 -14.08 -7.97 -20.36 -9.58 l-5.94 -1.61 0 -3.14 c0 -3.14 0.08 -3.31 4.67 -4.83 12.04 -4.16 29.86 -5.34 41.65 -2.88 20.87 4.50 38.42 19.08 48.77 40.54 l2.12 4.50 -0.51 -4.24 c-0.76 -5.85 -5.85 -22.31 -9.33 -30.37 -4.16 -9.67 -8.14 -16.37 -13.40 -22.65 -5 -6.11 -15.01 -13.74 -15.01 -11.54 0 1.95 -3.82 1.70 -12.30 -0.76 -3.99 -1.10 -10.52 -2.46 -14.42 -2.97 -12.89 -1.61 -29.35 2.12 -45.80 10.35 -6.62 3.39 -6.87 3.39 -13.15 2.88 -3.48 -0.25 -7.13 -0.76 -8.06 -1.02 -1.61 -0.42 -1.70 -0.08 -1.44 2.88 0.17 1.87 -0.08 4.16 -0.68 5.17 -0.85 1.61 -1.53 1.87 -5.77 1.61 l-4.83 -0.25 -0.25 -3.65 c-0.34 -4.92 0.76 -6.11 6.11 -6.19 2.38 0 3.82 -0.25 3.31 -0.51 -0.59 -0.17 -1.10 -1.10 -1.10 -2.04 0 -1.27 -0.59 -1.61 -3.31 -1.61 -2.80 0 -3.39 -0.34 -3.65 -1.78 -0.25 -1.70 -0.59 -1.53 -5.60 1.78 -3.65 2.46 -7.97 6.70 -13.23 13.06 -10.86 12.98 -14.08 15.78 -18.15 15.78 -3.05 0 -3.48 -0.25 -5.60 -4.24 -5.17 -9.50 -13.57 -17.39 -20.70 -19.42 -2.29 -0.68 -2.71 -0.59 -2.71 0.68 0 4.83 -22.73 17.81 -55.13 31.47 -9.08 3.82 -22.05 9.25 -28.84 12.13 -16.88 7.04 -42.67 20.27 -53.44 27.23 -17.56 11.45 -31.38 24.85 -41.05 39.78 -0.85 1.27 -1.36 2.29 -1.19 2.29 0.25 0 3.22 -2.12 6.62 -4.67z m398.24 -93.73 c-0.25 -0.42 -1.44 -0.85 -2.63 -0.85 -1.10 0 -2.04 0.42 -2.04 0.85 0 0.51 1.19 0.85 2.63 0.85 1.44 0 2.38 -0.34 2.04 -0.85z m-181.94 -50.13 c0 -1.02 -0.51 -0.93 -3.39 0.51 -1.44 0.76 -2.54 1.87 -2.54 2.54 0 0.93 0.59 0.85 2.97 -0.51 1.61 -1.02 2.97 -2.12 2.97 -2.54z m154.12 -2.04 c-0.34 -0.68 -0.93 -1.27 -1.44 -1.27 -1.19 0 -1.10 2.29 0.25 2.80 1.36 0.51 1.78 0.08 1.19 -1.53z m-95.76 -8.31 c0.17 -1.02 -0.25 -1.44 -1.44 -1.44 -1.27 0 -1.78 0.51 -1.78 1.78 0 2.12 2.80 1.87 3.22 -0.34z"/>
 </g>
 <g fill="#485562">
  <path d="M446.75 894.27 c-0.68 -1.78 -1.53 -3.90 -1.78 -4.67 -0.34 -1.02 -1.36 -1.53 -3.22 -1.53 -1.53 0 -4.67 -0.59 -6.87 -1.27 -4.75 -1.44 -7.29 -1.53 -19.51 -0.93 -5.60 0.34 -10.18 1.02 -11.62 1.78 -1.36 0.68 -3.82 1.27 -5.51 1.27 -2.97 0 -2.97 0 -2.97 -3.56 0 -7.63 6.02 -15.95 12.55 -17.47 1.70 -0.42 5.09 -1.19 7.38 -1.78 6.11 -1.44 11.45 -5 14.59 -9.75 3.73 -5.43 4.58 -8.74 5.09 -18.49 0.42 -7.97 0.51 -8.31 2.38 -8.31 1.44 0 2.12 -0.59 2.29 -1.87 0.17 -1.61 0.85 -2.04 3.99 -2.21 3.05 -0.25 4.07 0.08 6.02 1.95 2.04 1.95 2.38 2.04 3.39 0.85 1.19 -1.44 7.63 -1.78 7.63 -0.34 0 0.42 0.34 0.68 0.76 0.34 0.51 -0.25 4.50 -0.17 8.91 0.08 l8.14 0.59 0 3.48 c0 8.57 5.26 21.12 11.20 26.89 4.07 3.90 7.89 6.02 13.40 7.55 6.19 1.70 7.97 2.97 10.52 7.72 1.78 3.22 2.54 6.02 2.88 10.26 l0.42 5.77 -3.73 0 c-2.80 0 -4.16 -0.51 -5.94 -2.21 -1.78 -1.70 -3.31 -2.29 -6.87 -2.46 -2.46 -0.17 -8.91 -0.51 -14.25 -0.85 -8.48 -0.59 -10.69 -0.42 -16.96 1.19 -3.90 0.93 -7.97 1.78 -8.99 1.78 -1.53 0 -2.38 1.02 -4.07 4.67 -1.95 4.33 -2.29 4.67 -5 4.67 -2.54 0 -3.05 -0.42 -4.24 -3.14z"/>
  <path d="M326.56 875.78 c-0.42 -1.19 -0.85 -2.63 -0.85 -3.05 0 -0.42 -1.44 -0.59 -3.14 -0.34 -1.78 0.25 -8.06 1.02 -14 1.70 -5.94 0.68 -11.79 1.70 -12.98 2.12 -1.27 0.51 -3.56 0.85 -5.17 0.85 -2.71 0 -2.88 -0.17 -2.88 -2.97 l0 -2.97 -5.68 -0.17 c-3.22 -0.17 -8.57 -0.08 -11.96 0 l-6.11 0.25 0 -3.14 c0 -3.82 2.46 -7.89 6.79 -11.37 4.92 -3.90 9.92 -5.68 17.73 -6.28 9.42 -0.76 14.42 -3.14 21.21 -10.18 6.28 -6.62 8.57 -11.45 9.33 -19.51 l0.51 -6.02 3.90 -0.25 c2.88 -0.17 4.75 0.25 6.79 1.44 3.39 2.04 5 2.29 5 0.59 0 -1.27 1.78 -2.21 4.24 -2.21 0.85 0 5.09 1.19 9.42 2.63 7.89 2.63 9.16 2.54 9.25 -0.68 0 -0.76 1.36 -1.10 3.82 -1.10 2.97 0 3.99 0.42 5 1.95 1.78 2.88 3.31 13.15 2.71 18.83 -0.68 6.79 -0.68 7.89 0 18.24 0.51 8.48 0.42 8.99 -1.36 10.60 -2.12 1.95 -31.64 12.13 -37.07 12.89 -3.31 0.42 -3.73 0.25 -4.50 -1.87z"/>
  <path d="M510.20 834.13 c-7.80 -1.19 -19.68 -4.33 -25.19 -6.70 -5.17 -2.12 -4.58 -4.83 3.82 -18.92 3.82 -6.45 10.60 -19.25 15.01 -28.42 7.21 -14.93 8.31 -16.63 10.18 -16.63 2.04 -0.08 2.12 -0.25 1.87 -4.67 -0.25 -3.56 0.25 -6.11 2.54 -11.88 l2.80 -7.29 3.56 0 3.56 0 0.93 4.92 c3.48 17.81 11.54 42.33 19.59 59.46 2.63 5.51 4.16 10.01 4.16 11.96 0 2.38 0.68 3.65 2.97 5.94 2.54 2.46 2.97 3.48 2.80 5.94 -0.25 2.63 -0.68 3.05 -3.56 4.07 -10.86 3.48 -30.37 4.50 -45.04 2.21z"/>
  <path d="M663.73 784.26 c-22.73 -24.43 -43.68 -59.54 -72.95 -122.31 -9.58 -20.44 -19.76 -41.14 -24.77 -50.38 -8.31 -15.10 -28.33 -47.16 -43.51 -69.55 -32.91 -48.60 -41.73 -63.62 -47.42 -81 -5.34 -16.20 -7.38 -34.61 -6.45 -56.83 0.59 -15.69 2.04 -24.60 5.60 -36.47 1.44 -4.67 2.80 -9.16 2.97 -9.92 0.34 -1.10 1.36 -1.53 3.39 -1.53 l2.88 0 0 -4.83 c0 -2.71 0.25 -6.45 0.51 -8.31 0.51 -2.97 -0.59 -1.70 -9.08 11.03 -15.86 23.67 -23.24 33.25 -35.63 46.06 -6.70 6.87 -7.97 7.80 -10.52 7.80 -2.88 0 -2.97 -0.08 -2.97 -3.48 l0 -3.56 -12.89 13.15 c-11.45 11.54 -23.33 22.31 -34.18 30.96 l-3.39 2.63 1.87 2.46 c14.17 17.98 38.42 64.80 38.42 74.13 0 3.14 -0.08 3.31 -2.71 3.31 -2.54 0 -3.22 -0.68 -7.89 -7.80 -8.57 -13.15 -19.17 -27.74 -27.91 -38.42 -4.58 -5.60 -10.09 -12.38 -12.30 -15.01 -2.12 -2.63 -4.16 -4.83 -4.58 -4.83 -0.93 -0.08 -7.55 10.35 -11.96 19 -6.28 12.21 -14 33.50 -16.03 44.36 -0.51 2.63 -0.51 2.71 2.38 2.71 3.48 0 3.73 1.10 1.70 9.08 -0.68 2.71 -2.04 9.50 -2.97 15.10 -8.40 50.81 -8.82 102.97 -1.27 142.58 0.68 3.65 1.27 8.14 1.27 9.92 0 2.97 -0.08 3.14 -2.80 3.14 -2.63 0 -3.05 -0.42 -5.17 -4.75 -8.40 -17.13 -20.78 -52.25 -26.72 -75.49 -2.71 -10.77 -6.62 -30.37 -8.48 -42.75 -3.39 -22.65 -4.33 -37.07 -4.67 -71 -0.25 -29.69 -0.42 -33.93 -2.12 -43.51 -1.10 -5.85 -2.21 -11.11 -2.54 -11.71 -1.27 -2.21 -15.10 26.04 -21.71 44.19 -2.29 6.36 -2.38 6.53 -5.17 6.53 -2.63 0 -2.88 -0.17 -2.88 -2.63 0 -4.58 4.16 -23.41 7.38 -33.25 3.14 -10.01 10.01 -26.55 13.40 -32.66 1.87 -3.39 1.95 -3.82 0.85 -6.96 -2.12 -6.02 -5.60 -22.82 -6.11 -29.69 l-0.51 -6.79 -3.14 0 c-4.16 0 -4.24 -0.25 -4.83 -18.24 l-0.42 -14.42 3.48 -9.33 c1.95 -5.09 4.75 -11.88 6.19 -15.10 l2.63 -5.68 3.56 0 3.48 0 0 19.34 c-0.08 21.80 0.34 23.92 4.58 23.92 2.21 0 2.54 0.34 2.54 2.38 0 6.45 4.50 30.28 5.85 31.13 0.68 0.34 21.29 -29.77 26.97 -39.44 7.04 -12.04 13.74 -37.32 15.69 -59.38 0.85 -8.82 0.76 -13.32 -0.42 -26.72 -2.29 -25.53 -2.54 -32.57 -1.53 -40.88 1.27 -10.52 1.27 -10.43 5.77 -10.43 l3.90 0 -0.59 9.75 c-0.42 5.77 -0.34 9.75 0.17 9.75 0.42 0 1.44 5.94 2.29 13.15 0.85 7.29 1.87 12.89 2.21 12.55 0.25 -0.34 2.97 -7.38 5.85 -15.52 12.72 -35.96 14.76 -44.28 14.25 -58.95 -0.25 -7.72 -0.76 -10.18 -2.54 -14 -2.97 -6.62 -6.62 -10.43 -12.98 -13.66 -5.60 -2.88 -5.60 -2.88 -5.34 -6.28 l0.25 -3.39 4.67 -0.68 c2.54 -0.42 8.74 -0.51 13.74 -0.34 7.46 0.42 10.01 0.85 14.25 2.80 10.18 4.58 15.95 13.83 16.71 27.06 0.25 3.73 0 17.13 -0.51 29.69 -0.93 24.60 -2.29 33.59 -7.21 46.48 -1.19 3.14 -1.95 5.68 -1.70 5.68 1.87 0 25.96 -23.07 27.99 -26.80 1.44 -2.54 1.95 -2.88 5.09 -2.88 3.14 0 3.99 -0.42 6.70 -3.65 5.34 -6.19 13.06 -18.41 15.86 -25.36 l2.71 -6.62 3.73 0 3.82 0 -0.51 5.09 c-1.27 11.96 -6.19 25.11 -13.15 35.29 -4.58 6.70 -16.12 17.81 -34.10 32.74 -8.14 6.79 -18.75 16.20 -23.41 20.87 -29.09 28.92 -42.24 62.09 -34.69 87.96 2.46 8.57 10.01 24.85 11.88 25.53 1.27 0.51 19.85 -13.06 33.08 -24.17 17.64 -14.67 36.47 -34.69 46.14 -49.11 3.56 -5.09 3.73 -5.26 7.38 -5.26 l3.73 0 0 3.56 0 3.65 3.05 -4.58 c10.69 -15.78 22.39 -44.19 27.91 -67.69 4.24 -17.64 4.92 -35.88 2.12 -52.42 -0.93 -5.43 -1.70 -11.45 -1.70 -13.23 0 -3.31 0 -3.31 3.22 -3.31 3.14 0 3.56 0.34 7.97 6.62 23.41 32.66 34.01 60.48 47.75 126.13 2.63 12.64 6.62 31.64 8.99 42.24 4.67 21.63 5.09 25.79 2.54 26.21 -1.53 0.25 -1.02 1.70 4.75 14.25 19.51 42.92 34.95 87.03 50.04 142.92 16.79 62.77 24.17 83.80 48.60 139.96 13.40 30.79 28.84 71.50 29.52 77.87 0.34 3.65 0.25 3.99 -1.44 3.99 -1.44 0 -1.78 0.51 -1.78 2.54 0 2.29 -0.25 2.54 -2.88 2.54 -2.63 0 -3.82 -0.93 -11.11 -8.82z m-347.17 -333.94 c1.87 -3.39 1.95 -3.48 6.28 -3.14 l4.33 0.25 7.97 -8.23 8.06 -8.31 -2.80 -5.43 c-4.67 -9.25 -8.48 -19.17 -11.28 -29.60 l-2.80 -10.01 -3.65 4.07 c-5.68 6.19 -14.76 18.32 -21.12 28.16 -6.62 10.26 -6.62 9.50 0.08 22.90 3.82 7.72 3.82 7.72 7.13 7.72 2.80 0 3.31 0.34 4.16 2.54 0.42 1.44 1.02 2.54 1.27 2.54 0.25 0 1.27 -1.53 2.38 -3.48z"/>
  <path d="M250.22 160.82 c0 -3.56 1.53 -4.83 11.71 -10.09 13.66 -7.04 26.13 -12.30 39.27 -16.71 15.10 -5.09 20.61 -7.63 20.95 -9.58 0.25 -1.27 -0.51 -1.44 -5.26 -1.44 l-5.60 0 0 -2.97 c0 -2.63 0.85 -3.90 7.04 -10.01 12.81 -12.89 30.37 -19.25 52.84 -19.25 20.95 0 44.79 8.06 53.27 17.90 3.31 3.90 8.48 13.49 11.88 22.14 3.05 7.80 8.14 25.70 8.14 28.75 0 2.21 -0.25 2.46 -2.88 2.46 -2.63 0 -3.14 -0.51 -8.23 -8.23 -9.16 -13.91 -18.49 -22.05 -32.15 -27.99 -17.13 -7.38 -31.13 -7.46 -50.30 -0.25 -2.80 1.02 -4.67 2.21 -4.24 2.54 0.34 0.34 3.39 1.27 6.62 2.04 3.31 0.85 8.82 2.88 12.30 4.58 6.11 2.97 6.36 3.31 6.62 6.36 l0.25 3.14 -3.48 0 c-1.95 0 -6.45 -0.76 -10.01 -1.61 -23.67 -6.02 -40.29 -4.16 -64.38 6.96 -6.45 3.05 -13.83 6.28 -16.46 7.21 -8.14 2.97 -22.56 6.96 -25.28 6.96 -2.46 0 -2.63 -0.25 -2.63 -2.88z"/>
  <path d="M263.79 128.25 c0 -1.70 1.02 -3.39 3.48 -5.68 1.87 -1.87 6.70 -7.29 10.60 -11.96 8.74 -10.69 14 -14.76 18.92 -14.76 2.54 0 3.48 0.34 3.48 1.27 0 0.76 1.02 1.53 2.54 1.78 2.21 0.51 2.54 0.93 2.54 3.39 0 1.78 -0.42 2.88 -1.10 2.88 -0.59 0 -3.14 1.02 -5.60 2.21 -3.31 1.70 -5.51 3.65 -8.31 7.46 l-3.82 5.17 5.34 0.59 c8.91 1.02 9.25 1.19 9.25 4.50 0 1.95 -0.42 2.97 -1.44 3.31 -3.99 1.27 -14.50 2.21 -24.60 2.21 l-11.28 0 0 -2.38z"/>
 </g>
 <g fill="#020202">
  <path d="M446.58 894.95 c-2.63 -3.65 -3.65 -4.33 -8.91 -6.02 -5.34 -1.70 -6.96 -1.87 -15.52 -1.27 -5.17 0.34 -11.62 0.68 -14.17 0.76 -3.48 0.08 -5.60 0.76 -8.14 2.46 -3.90 2.63 -5.85 2.38 -6.62 -0.76 -1.70 -6.70 4.83 -18.92 12.21 -22.82 1.19 -0.59 5.17 -1.78 8.91 -2.54 7.13 -1.44 10.77 -3.56 14.25 -8.31 3.56 -4.67 4.58 -10.52 4.16 -22.73 l-0.17 -4.83 -6.36 -1.44 c-11.45 -2.54 -30.20 -13.06 -41.39 -23.33 -2.54 -2.29 -4.92 -4.24 -5.26 -4.24 -0.25 0 -1.78 2.54 -3.22 5.77 -1.53 3.14 -3.73 7.38 -5 9.50 l-2.29 3.90 1.27 5.43 c0.85 3.65 1.10 7.04 0.76 10.18 -0.76 6.02 -0.76 10.77 0 18.83 0.76 7.55 -0.17 10.86 -3.73 13.32 -1.19 0.93 -8.14 3.39 -15.35 5.60 -7.21 2.12 -15.27 4.92 -17.73 6.11 -5.60 2.63 -7.29 1.87 -9.58 -4.16 -0.42 -0.93 -28.75 2.63 -32.40 3.99 -4.33 1.78 -6.28 1.02 -6.62 -2.38 -0.25 -2.54 -0.42 -2.71 -4.92 -3.39 -4.41 -0.68 -8.99 -0.42 -16.29 0.76 l-3.22 0.51 0 -3.31 c0 -6.02 7.46 -14.93 15.95 -19 2.38 -1.19 6.70 -2.12 11.88 -2.63 9.50 -0.93 12.47 -2.29 19.08 -8.31 5.34 -4.92 7.89 -9.50 8.74 -15.86 0.51 -3.90 0.34 -4.67 -1.19 -5.94 -1.02 -0.85 -3.05 -4.58 -4.67 -8.40 -1.61 -3.73 -5.51 -11.03 -8.65 -16.12 -6.70 -10.60 -9.33 -17.90 -10.69 -29.86 l-1.02 -8.23 -6.96 -11.03 c-21.97 -34.69 -31.47 -67.43 -34.86 -120.19 -0.25 -5.09 -0.85 -9.16 -1.27 -9.16 -0.42 0 -3.14 5.09 -6.11 11.28 -21.80 45.72 -55.05 85.58 -83.21 99.83 -11.37 5.77 -16.88 4.24 -18.41 -5.26 -1.02 -6.28 0.42 -21.88 3.48 -37.49 9.16 -46.74 23.41 -87.11 63.19 -179.06 8.40 -19.51 23.07 -54.79 28.67 -69.30 2.54 -6.36 5 -15.10 7.04 -24.60 3.90 -18.66 8.31 -33.50 14.25 -48.86 19.42 -49.71 39.61 -84.31 76.85 -131.64 15.27 -19.51 23.75 -34.61 23.75 -42.41 0 -5 -6.70 -10.01 -16.54 -12.38 -5.60 -1.27 -6.62 -1.27 -17.39 0.25 -15.86 2.12 -34.18 1.95 -54.71 -0.68 -20.95 -2.54 -47.42 -2.80 -62.77 -0.42 -23.75 3.65 -68.62 16.46 -96.70 27.65 -6.02 2.38 -18.07 7.80 -26.63 11.96 -8.57 4.16 -15.86 7.29 -16.29 7.04 -1.36 -0.85 -0.85 -2.04 2.71 -5.85 5.68 -6.19 1.61 -4.83 -8.91 2.97 -5 3.73 -9.84 6.79 -10.77 6.79 -2.46 0 -2.04 -3.14 1.36 -8.74 9.84 -16.29 23.92 -30.37 42.83 -42.67 10.77 -6.96 36.56 -20.19 53.44 -27.23 6.79 -2.88 19.76 -8.31 28.84 -12.13 20.70 -8.74 34.18 -15.35 43.85 -21.63 10.01 -6.53 11.28 -7.72 11.28 -11.20 0 -4.24 1.78 -7.04 8.23 -12.98 7.46 -6.87 18.66 -14.25 30.20 -20.10 9.50 -4.75 12.55 -5.26 10.77 -1.87 -0.93 1.61 -0.85 1.70 1.02 1.19 1.02 -0.34 4.24 -1.78 7.04 -3.14 7.38 -3.73 23.92 -10.01 26.29 -10.01 1.70 0 2.12 0.42 2.12 2.21 0 1.53 0.34 2.04 1.19 1.78 0.59 -0.25 4.92 -1.27 9.58 -2.38 9.25 -2.04 11.79 -1.87 11.03 1.02 -0.59 2.04 -2.54 2.12 17.64 -0.51 26.13 -3.39 55.73 -0.68 74.90 6.96 5.43 2.21 6.96 4.50 3.82 5.77 -1.19 0.42 -0.25 1.27 3.99 3.99 3.05 1.95 7.29 5 9.58 6.79 4.16 3.56 5.26 6.62 2.38 6.62 -2.71 0 -2.71 1.27 0 3.90 4.07 3.82 8.40 10.09 8.40 12.13 0 1.19 -0.51 1.78 -1.70 1.78 -0.93 0 -1.70 0.08 -1.70 0.25 0 0.17 1.53 3.65 3.39 7.80 4.50 10.18 4.50 14.08 0 11.28 -0.85 -0.59 -1.78 -0.85 -2.04 -0.59 -0.25 0.25 0.68 6.70 2.12 14.25 6.02 32.83 11.20 46.23 25.96 67.69 32.83 47.67 38.51 62.77 57.51 152.93 4.07 18.92 8.57 40.88 10.09 48.77 3.73 18.66 4.16 20.36 8.74 30.45 15.27 33.93 30.62 79.82 46.82 140.13 13.57 50.38 19.59 67.60 41.73 119.51 14.50 34.27 20.10 48.26 28.08 70.83 7.80 22.14 9.75 29.26 8.23 31.04 -2.80 3.39 -9.16 -0.25 -21.12 -12.30 -21.38 -21.54 -45.13 -59.46 -69.55 -111.20 -20.44 -43.09 -26.89 -56.32 -33.08 -67.43 -9.84 -17.81 -25.11 -42.41 -26.46 -42.67 -0.93 -0.17 -1.78 4.92 -4.07 26.13 l-2.88 26.29 1.53 7.04 c0.76 3.82 1.95 9.42 2.63 12.47 0.68 3.05 1.78 9.92 2.63 15.27 2.54 17.30 0.59 41.56 -5.17 64.04 -2.54 10.09 -2.63 11.96 -0.51 22.90 5.77 30.20 17.98 63.62 29.77 81.77 1.87 2.97 3.39 6.02 3.22 6.79 -0.34 1.70 -6.36 4.75 -12.98 6.45 -18.07 4.67 -42.83 2.54 -62.94 -5.51 -3.48 -1.44 -6.70 -2.54 -7.21 -2.54 -1.02 0 -0.25 8.48 1.44 15.44 1.61 6.28 3.99 10.94 7.80 15.18 3.65 3.99 7.13 5.94 14.59 7.97 3.82 1.10 6.19 2.38 8.23 4.50 5.85 6.02 8.14 21.38 3.56 24.26 -1.02 0.59 -2.29 0 -5.68 -2.80 -3.56 -2.97 -5.09 -3.73 -8.40 -3.90 -25.36 -1.70 -29.09 -1.53 -39.36 1.78 -3.31 1.10 -4.41 2.04 -6.53 5.51 -3.39 5.43 -5.09 5.43 -8.99 0z m6.96 -4.83 c2.21 -4.83 2.21 -7.97 0.08 -12.72 -2.21 -4.75 -6.19 -0.59 -6.19 6.36 0 3.39 2.46 11.11 3.56 11.11 0.17 0 1.36 -2.12 2.54 -4.75z m60.14 -5.60 c-0.76 -4.75 -4.58 -11.54 -7.29 -12.98 -1.19 -0.59 -3.82 -1.53 -5.94 -2.12 -5.51 -1.53 -9.33 -3.65 -13.40 -7.55 -6.02 -5.85 -11.20 -18.32 -11.20 -26.97 0 -3.31 -0.17 -3.65 -2.12 -3.65 -1.10 0 -3.05 0.42 -4.33 1.02 -1.87 0.85 -2.38 0.85 -3.31 -0.42 -0.85 -1.19 -1.44 -1.27 -3.82 -0.42 -2.46 0.85 -2.97 0.76 -3.99 -0.68 -1.19 -1.53 -1.27 -1.53 -3.14 0.76 -1.02 1.27 -2.21 2.29 -2.71 2.29 -0.51 0 -2.46 -1.36 -4.41 -3.05 -3.82 -3.31 -5.77 -3.31 -6.28 -0.17 -0.17 1.44 -0.76 1.87 -2.04 1.78 -1.78 -0.17 -1.87 0.25 -2.29 8.06 -0.51 9.75 -1.44 13.06 -5.09 18.49 -3.14 4.75 -8.48 8.31 -14.59 9.75 -2.29 0.59 -5.77 1.36 -7.63 1.78 -4.24 1.10 -8.99 5.77 -11.03 11.11 -0.85 2.21 -1.36 4.24 -1.10 4.41 0.25 0.25 2.88 -0.68 5.85 -2.12 4.92 -2.29 5.51 -2.38 6.45 -1.19 0.85 1.19 1.87 1.27 8.23 0.42 7.21 -1.02 15.35 -0.34 20.44 1.61 3.39 1.27 3.56 1.19 4.16 -3.56 0.51 -3.31 1.27 -5 3.48 -7.21 3.56 -3.56 6.36 -3.65 9.16 -0.25 2.29 2.71 2.63 3.56 3.56 8.74 0.34 2.29 0.85 3.14 1.70 2.80 7.04 -2.63 19.34 -3.90 29.09 -2.97 4.07 0.42 7.97 1.02 8.82 1.27 0.93 0.25 1.61 -0.17 1.95 -1.36 0.76 -2.38 1.44 -2.21 6.53 2.04 5.85 4.92 7.04 5 6.28 0.34z m-165.32 -15.52 c8.40 -2.80 16.20 -5.85 17.22 -6.79 1.95 -1.78 2.04 -4.50 0.34 -16.79 -0.34 -2.63 -0.17 -5.34 0.51 -7.46 2.04 -6.02 -1.19 -20.27 -4.58 -20.27 -0.68 0 -1.44 0.93 -1.70 2.12 -0.42 1.78 -1.02 2.12 -3.73 2.12 -1.70 0 -6.28 -1.10 -10.09 -2.38 -7.46 -2.54 -8.74 -2.54 -8.74 -0.08 0 2.38 -3.73 2.12 -9.16 -0.59 -2.46 -1.19 -4.92 -2.04 -5.60 -1.78 -0.68 0.25 -1.27 2.54 -1.53 6.28 -0.59 7.80 -2.97 12.81 -9.25 19.42 -6.79 7.04 -11.79 9.42 -21.21 10.18 -7.80 0.59 -12.81 2.38 -17.73 6.28 -2.71 2.12 -6.79 7.29 -6.79 8.57 0 0.17 4.50 0.42 10.01 0.51 l10.01 0.17 2.04 -3.90 c3.14 -5.94 11.03 -10.94 12.04 -7.72 0.25 0.59 -1.61 2.97 -4.07 5.34 -2.97 2.88 -4.75 5.43 -5.51 7.89 -1.19 4.24 -0.93 4.75 2.12 3.56 1.27 -0.42 7.13 -1.44 13.06 -2.12 19.76 -2.29 17.98 -1.78 17.98 -5.09 0 -5.34 2.38 -9.42 8.91 -15.27 6.02 -5.34 6.28 -5.51 7.21 -3.73 0.93 1.61 0.42 2.29 -4.58 7.13 -6.02 5.85 -7.29 8.06 -7.29 13.15 0 4.92 1.36 7.97 3.22 7.13 0.76 -0.34 8.40 -2.97 16.88 -5.85z m198.74 -38.17 c10.60 -2.46 10.52 -1.95 1.61 -11.28 -11.54 -12.21 -24.17 -32.32 -29.94 -47.92 -1.10 -2.88 -2.54 -5.34 -3.14 -5.43 -0.76 -0.17 -4.16 5.94 -9.25 16.46 -4.41 9.16 -11.20 21.97 -15.01 28.42 -3.90 6.45 -7.04 11.96 -7.04 12.13 0 1.44 17.81 6.70 28.42 8.48 9.58 1.53 25.79 1.10 34.35 -0.85z m-93.30 -5.43 c0.51 -1.36 1.61 -2.71 2.29 -2.97 1.36 -0.59 3.56 1.61 3.65 3.56 0 1.53 1.53 1.27 3.99 -0.68 1.19 -0.93 2.71 -1.70 3.31 -1.70 0.59 0 1.36 0.76 1.61 1.70 0.68 2.21 1.10 2.21 5.77 -0.93 4.83 -3.22 10.26 -11.20 20.44 -30.03 10.01 -18.66 16.54 -33.42 22.39 -50.72 11.71 -34.18 16.46 -64.04 13.83 -87.11 -1.61 -13.74 -5.77 -33.08 -9.08 -41.56 -3.90 -10.26 -6.79 -21.21 -8.06 -30.96 -1.02 -7.89 -1.78 -9.25 -3.99 -7.04 -1.95 1.95 -2.63 -0.68 -3.48 -13.32 -1.87 -27.82 -8.91 -52.33 -22.39 -78.63 -14 -27.23 -18.32 -47.08 -17.30 -79.14 0.51 -16.63 1.53 -22.90 6.11 -38 3.39 -10.86 3.39 -10.77 1.78 -10.77 -0.68 0 -4.75 5 -9.08 11.11 -12.13 17.30 -24.26 31.47 -34.18 40.04 -6.45 5.51 -7.55 5.43 -6.70 -0.85 0.34 -2.29 0.17 -3.65 -0.42 -3.65 -0.51 0 -7.13 6.19 -14.76 13.83 -7.63 7.63 -18.32 17.56 -23.83 22.14 -5.43 4.50 -9.75 8.57 -9.50 9.08 0.34 0.42 2.97 3.99 5.94 7.97 13.91 18.41 29.77 50.64 38.51 77.95 3.31 10.52 4.16 14.93 2.88 14.93 -0.42 0 -3.90 -5.34 -7.80 -11.96 -10.94 -18.24 -30.11 -46.57 -31.98 -47.16 -0.68 -0.25 -0.85 3.31 -0.51 12.72 0.42 13.74 -0.08 19.25 -1.78 19.25 -0.59 0 -2.63 -2.12 -4.58 -4.67 -2.04 -2.54 -3.99 -4.67 -4.41 -4.67 -0.34 0 -1.19 3.56 -1.70 7.89 -1.87 14.42 -3.22 16.71 -6.87 11.62 -1.87 -2.54 -3.39 -3.31 -3.39 -1.61 0 2.46 -6.02 14.76 -12.38 25.45 -9.33 15.52 -10.60 18.24 -13.91 28.33 -5.85 18.32 -6.36 22.22 -6.28 47.92 0.08 26.29 1.27 40.21 5.94 67.86 1.70 10.18 2.54 17.64 2.12 18.07 -2.12 2.12 -14.17 -20.95 -21.97 -41.82 -10.26 -27.40 -16.03 -47.25 -20.95 -72.01 -1.78 -8.82 -3.73 -15.01 -8.99 -28.25 -7.63 -19.25 -10.69 -29.94 -11.54 -40.21 -0.51 -7.04 -1.27 -8.31 -3.48 -6.11 -0.51 0.51 -1.27 0.76 -1.61 0.42 -1.36 -1.36 -2.88 -12.13 -3.39 -23.67 -0.25 -6.96 -0.76 -12.55 -1.19 -12.55 -1.10 0 -7.13 18.15 -10.94 32.91 -1.61 6.28 -2.97 3.90 -2.88 -5 0.17 -15.10 5.85 -42.83 11.88 -58.27 1.19 -3.14 4.50 -10.52 7.38 -16.46 l5.09 -10.86 -2.29 -7.38 c-2.54 -8.40 -5.60 -22.39 -5.60 -25.87 0 -2.46 -1.44 -3.14 -3.14 -1.44 -0.68 0.68 -1.19 0.51 -1.78 -0.59 -0.93 -1.87 -2.38 -8.40 -3.14 -14.17 -2.21 -17.05 -11.96 24.51 -14.93 63.45 -1.70 22.48 -0.25 52.17 4.33 91.18 2.54 21.63 4.07 38.51 6.36 71.25 3.14 43.34 5.60 59.46 12.30 81.43 6.79 22.05 15.69 39.19 32.40 62.43 8.31 11.54 10.86 15.27 10.86 16.03 0 1.44 -2.38 -0.17 -5.77 -3.82 -5 -5.51 -6.53 -5.60 -5.77 -0.17 0.93 6.79 3.82 14.25 8.23 20.95 4.75 7.38 8.57 14.59 10.09 19.51 1.53 4.92 1.70 5.09 3.48 2.12 1.10 -1.70 2.04 -2.38 2.71 -1.95 5.60 3.48 10.35 6.19 10.86 6.19 0.34 0 0.76 -1.27 0.93 -2.71 0.34 -3.56 1.53 -3.48 10.43 0.42 3.73 1.61 7.97 3.22 9.42 3.56 2.54 0.51 2.71 0.34 3.48 -2.71 0.93 -3.90 2.63 -4.41 6.19 -1.87 1.61 1.19 2.88 1.61 3.31 1.10 0.51 -0.42 3.31 -5.68 6.28 -11.79 3.05 -6.02 7.21 -13.40 9.42 -16.37 2.12 -2.88 3.90 -5.43 3.90 -5.60 0 -0.17 -2.54 -0.51 -5.68 -0.85 -19.25 -1.95 -44.62 -16.12 -64.72 -36.13 -13.57 -13.57 -26.72 -32.74 -25.19 -36.81 0.85 -2.29 2.54 -0.76 7.13 6.53 15.61 24.68 40.88 46.23 64.46 54.88 9.92 3.56 16.88 5 30.71 6.36 9.92 0.93 13.06 1.61 16.37 3.31 4.67 2.46 4.50 2.71 2.80 -7.13 -2.21 -12.13 -3.05 -30.96 -2.04 -45.63 2.38 -35.79 11.79 -66.42 27.91 -90.76 6.70 -10.09 20.61 -24.77 23.50 -24.77 4.16 0 3.14 2.38 -4.83 10.77 -26.63 28.16 -40.97 69.38 -41.05 118.16 0 23.58 3.05 43.94 9.67 63.36 3.14 9.33 8.99 21.04 11.96 23.67 1.27 1.19 1.44 1.02 1.95 -1.78 0.34 -1.70 1.10 -2.97 1.78 -2.97 0.68 0 3.31 1.87 6.02 4.24 2.63 2.29 5.09 4.07 5.43 3.82 0.34 -0.25 1.10 -1.53 1.70 -2.88z m-34.44 -11.71 c-0.76 -1.78 -2.80 -7.13 -4.50 -11.88 -5.60 -15.01 -8.99 -18.92 -16.54 -18.92 -2.63 0 -3.48 0.59 -7.29 5.26 -2.29 2.97 -4.24 5.60 -4.24 5.85 0 1.02 9.42 9.25 14.50 12.72 6.11 4.07 16.88 10.09 18.41 10.09 0.76 0 0.68 -0.76 -0.34 -3.14z m126.98 -7.13 c-8.06 -17.13 -16.12 -41.65 -19.59 -59.46 -0.51 -2.71 -1.44 -4.92 -1.95 -4.92 -0.59 0 -2.29 3.31 -3.90 7.46 -2.71 6.87 -2.80 7.63 -1.87 11.20 1.78 6.62 8.40 21.29 13.91 30.79 4.67 8.14 16.63 24.68 17.30 24 0.17 -0.08 -1.61 -4.24 -3.90 -9.08z m125.62 -21.71 c-22.82 -33.67 -41.56 -72.18 -71.42 -146.57 -15.95 -39.78 -15.69 -39.10 -22.48 -53.86 -7.38 -15.95 -16.96 -32.83 -32.66 -57.25 -19 -29.52 -22.90 -36.13 -29.69 -49.62 -10.18 -20.27 -17.22 -40.38 -20.78 -59.12 -1.61 -8.40 -2.80 -9.75 -4.83 -5.60 -2.12 4.41 -3.73 3.48 -5.17 -2.97 -2.54 -11.03 -3.31 -20.36 -2.97 -35.71 0.17 -11.45 0 -15.35 -0.76 -15.35 -0.51 0 -1.19 0.68 -1.44 1.53 -0.17 0.76 -1.53 5.26 -2.97 9.92 -3.39 11.28 -4.92 20.53 -5.60 34.35 -0.93 19.51 1.27 38.08 6.45 53.86 5.68 17.39 14.50 32.40 47.42 81 15.18 22.39 35.20 54.46 43.51 69.55 5 9.25 15.18 29.94 24.77 50.38 23.24 49.88 39.70 79.39 57.93 104.33 6.79 9.16 22.90 27.23 23.67 26.46 0.25 -0.17 -1.10 -2.63 -2.97 -5.34z m6.19 -1.27 c-3.48 -11.45 -19.76 -53.10 -29.26 -74.90 -24.43 -56.15 -31.81 -77.19 -48.60 -139.96 -15.52 -57.59 -29.52 -97.29 -51.06 -144.96 -13.40 -29.69 -19.34 -43.94 -22.39 -53.44 -2.80 -8.65 -3.14 -11.11 -1.78 -11.96 1.02 -0.59 1.53 0.59 9.25 19.93 6.28 15.86 11.96 28.33 12.55 27.65 0.25 -0.17 -2.29 -13.06 -5.60 -28.67 -3.39 -15.52 -7.63 -35.46 -9.50 -44.36 -10.86 -51.15 -21.71 -80.41 -39.70 -107.30 -8.99 -13.49 -10.77 -15.86 -11.54 -15.10 -0.34 0.25 0.25 5.34 1.27 11.28 2.12 12.47 2.46 30.54 0.85 41.99 -3.90 27.91 -19.34 68.11 -32.91 86.09 -4.33 5.68 -5.60 5.60 -5.94 -0.59 -0.34 -6.45 -1.61 -6.36 -6.19 0.42 -9.67 14.33 -28.58 34.44 -46.06 49.03 -12.98 10.77 -33.93 26.21 -35.71 26.21 -3.14 0 -10.35 -13.91 -14.50 -27.74 -5.34 -17.90 -1.44 -41.14 10.43 -61.75 9.84 -17.13 22.90 -31.38 47.75 -52 34.69 -28.84 41.48 -38.34 47.16 -66.08 0.25 -1.27 0 -1.95 -0.76 -1.95 -0.59 0 -2.29 2.97 -3.82 6.62 -3.22 7.89 -11.03 20.10 -17.22 26.80 -4.41 4.83 -5.85 5.68 -5.85 3.48 0 -2.38 -2.97 -1.27 -4.58 1.61 -2.38 4.50 -32.83 32.74 -35.29 32.74 -1.87 0 -1.53 -2.29 2.21 -12.04 6.70 -17.81 7.89 -24.94 8.91 -50.72 0.51 -12.38 0.68 -24.60 0.42 -27.23 -1.61 -16.37 -12.04 -26.38 -28.58 -27.48 -7.63 -0.51 -15.27 0.34 -15.78 1.70 -0.08 0.51 2.21 2.12 5.26 3.73 6.36 3.22 10.01 7.04 13.06 13.66 1.95 4.16 2.21 5.94 2.46 16.54 0.51 17.56 -1.10 24.60 -13.83 60.22 -2.63 7.46 -5.60 15.35 -6.53 17.64 -1.61 3.82 -3.31 5 -4.50 3.14 -0.25 -0.42 -1.36 -7.21 -2.29 -15.01 -1.02 -7.89 -2.21 -14.50 -2.63 -14.84 -0.51 -0.34 -0.68 -3.99 -0.34 -9.92 0.42 -7.63 0.34 -9.42 -0.59 -9.42 -1.61 0 -2.04 1.44 -3.05 10.09 -0.93 7.46 -0.42 18.49 1.70 39.53 2.29 21.88 -0.85 48.26 -8.57 71.25 -4.24 12.64 -6.11 16.03 -21.12 38.17 -13.40 19.76 -14.59 21.21 -16.37 20.53 -2.12 -0.76 -7.38 -25.11 -7.38 -34.10 0 -2.12 -0.25 -2.29 -2.46 -1.87 -4.07 0.85 -4.75 -2.54 -4.75 -24.68 0 -13.15 -0.25 -18.83 -0.93 -18.83 -1.10 0 -4.83 7.97 -9.75 20.78 l-3.48 9.33 0.51 11.88 c0.25 6.53 0.68 12.81 1.02 13.83 l0.59 2.04 1.95 -2.46 c2.80 -3.48 3.65 -1.95 4.67 7.89 0.93 9.50 3.31 20.87 6.28 30.96 l2.04 6.79 -2.46 4.41 c-3.73 6.70 -10.43 22.82 -13.83 33.33 -2.80 8.65 -7.72 29.94 -7.04 30.62 0.17 0.17 1.36 -2.71 2.63 -6.28 3.82 -10.35 14.33 -33.59 18.66 -40.97 6.02 -10.35 7.04 -9.92 9.67 3.56 2.80 14.33 3.48 25.62 3.48 54.54 -0.08 46.91 4.92 81.68 17.98 125.54 6.19 21.04 18.07 52.25 22.90 60.22 1.87 3.05 1.87 2.63 0.25 -5.85 -6.45 -33.84 -7.21 -85.42 -1.70 -127.32 1.78 -13.40 4.50 -30.03 5.85 -35.29 1.02 -3.73 0.93 -4.16 -0.25 -4.16 -0.85 0 -1.87 0.42 -2.46 1.02 -0.76 0.76 -1.27 0.76 -1.95 0.08 -2.04 -2.04 4.50 -25.79 11.71 -42.58 4.24 -10.01 11.96 -23.83 15.69 -28.50 4.24 -5.09 2.97 -6.11 22.90 18.24 10.09 12.38 13.40 16.88 24.60 33.42 5.09 7.46 9.16 13.15 9.16 12.64 0 -1.87 -7.04 -17.81 -14.08 -31.81 -8.23 -16.46 -14 -26.04 -21.88 -36.56 -3.05 -4.07 -5.60 -7.97 -5.60 -8.57 0 -0.68 2.97 -3.65 6.62 -6.62 12.38 -10.09 22.65 -19.51 34.95 -32.15 6.79 -6.96 12.98 -12.64 13.83 -12.64 1.19 0 1.44 0.76 1.44 4.67 0 2.54 0.17 4.67 0.42 4.67 0.85 0 16.03 -16.29 21.46 -22.99 6.28 -7.89 19.17 -26.21 28.67 -40.80 3.22 -5 6.28 -8.99 6.70 -8.82 1.02 0.25 1.02 7.72 0.08 34.44 -0.68 18.92 -0.34 26.13 1.78 38.08 l0.51 2.88 1.95 -3.73 c1.02 -2.12 2.46 -4.33 3.22 -4.92 1.10 -0.93 1.44 -0.76 2.12 0.85 0.42 1.10 1.27 5.26 1.78 9.25 2.46 18.32 10.94 43.94 21.71 65.74 6.19 12.55 10.26 19.25 32.74 54.29 13.06 20.36 22.82 37.66 29.94 53.01 6.79 14.67 6.79 14.67 20.10 47.92 6.53 16.37 14.25 35.46 17.22 42.41 20.53 48.86 40.12 86.77 55.64 107.81 3.65 5 4.58 5.68 3.73 2.71z m-522.25 -64.72 c28.58 -15.78 62.34 -58.53 82.87 -105.18 l5.68 -12.72 -0.59 -8.06 c-0.34 -4.41 -1.44 -17.05 -2.54 -27.99 -4.33 -43.51 -5.68 -56.49 -6.02 -58.36 -0.34 -1.53 -2.80 2.80 -10.01 16.96 -5.26 10.43 -14.17 27.91 -19.76 38.85 -14.17 27.91 -25.87 55.81 -39.44 94.58 -9.42 27.06 -19.17 61.07 -18.15 63.70 0.68 1.78 1.95 1.44 7.97 -1.78z m371.26 -153.53 l0.59 -6.79 -9.16 -13.57 c-10.52 -15.86 -10.69 -16.03 -9.67 -12.21 1.10 4.07 3.14 17.73 3.82 25.62 0.51 6.19 0.68 6.53 2.63 6.53 2.46 0 2.21 -0.68 4.41 13.15 1.02 6.11 2.29 12.55 2.80 14.42 1.02 3.31 1.10 3.05 2.54 -8.48 0.76 -6.53 1.70 -14.93 2.04 -18.66z m-337.42 5.17 c3.14 -6.53 10.43 -20.95 16.29 -31.89 12.98 -24.51 18.66 -36.47 23.67 -49.62 3.56 -9.33 3.90 -10.94 4.24 -19.08 0.17 -4.92 0.08 -8.74 -0.08 -8.48 -0.25 0.25 -1.95 4.24 -3.82 8.91 -3.99 9.92 -16.88 40.46 -28.58 67.43 -9.08 21.12 -21.63 52.08 -21.54 53.18 0 0.34 1.02 -1.36 2.12 -3.90 1.19 -2.46 4.67 -9.92 7.72 -16.54z m159.89 -30.96 c1.78 -3.39 4.07 -8.91 5 -12.13 l1.78 -5.94 4.07 0.34 4.07 0.25 0.59 -8.65 0.59 -8.74 4.33 0 c2.88 0 4.83 0.51 5.94 1.53 1.70 1.44 1.70 1.36 1.10 -4.50 -1.27 -13.57 -2.54 -17.05 -9.08 -25.62 -3.31 -4.33 -6.36 -8.14 -6.87 -8.40 -0.51 -0.34 -1.61 0.34 -2.46 1.44 -3.31 4.24 -14.33 27.91 -17.64 37.66 l-3.48 10.18 2.54 0.25 c2.29 0.25 2.54 0.59 2.54 3.14 0 1.53 -0.76 6.02 -1.70 9.92 -1.44 6.19 -5.94 31.21 -5.94 33.25 0 1.10 10.86 -16.79 14.59 -24z m-66.75 11.11 c-0.25 -2.29 -0.68 -18.24 -0.76 -35.46 -0.25 -28.67 -1.44 -47.84 -2.97 -47.84 -0.34 0 -2.21 3.31 -4.16 7.29 -2.88 5.77 -3.82 8.82 -4.50 14.25 -0.85 7.97 -1.02 18.07 -0.25 23.75 0.59 3.90 0.59 3.90 3.82 3.90 1.87 0 3.31 0.25 3.31 0.68 0.25 7.89 2.04 22.82 3.48 29.26 2.04 8.82 2.97 10.77 2.04 4.16z m84.99 -138.26 c32.74 -24.77 53.52 -45.13 66.92 -65.65 3.05 -4.58 6.11 -9.67 6.87 -11.28 2.71 -5.60 5.09 -2.71 5.26 6.36 l0.17 4.67 2.04 -2.54 c5.94 -7.21 19.08 -37.41 24.17 -55.56 4.92 -17.56 6.28 -27.06 6.28 -42.83 0 -21.21 -3.39 -37.66 -12.30 -59.80 -6.02 -15.01 -8.57 -23.67 -11.37 -38.85 -1.19 -6.36 -3.14 -16.03 -4.24 -21.38 -1.19 -5.34 -1.78 -10.01 -1.44 -10.35 0.34 -0.34 1.70 -0.08 3.05 0.59 1.36 0.68 2.54 1.27 2.80 1.27 0.25 0 -1.53 -3.65 -3.99 -8.06 -2.97 -5.60 -3.99 -8.23 -3.22 -8.40 0.59 -0.25 1.61 -0.51 2.29 -0.68 0.68 -0.17 -1.19 -2.71 -4.92 -6.79 -6.19 -6.62 -7.38 -9.16 -4.33 -9.16 0.93 0 1.70 -0.34 1.70 -0.76 0 -0.68 -10.43 -7.63 -17.05 -11.37 -2.04 -1.19 -2.46 -1.78 -1.78 -2.46 0.59 -0.59 1.02 -1.27 1.02 -1.70 0 -0.85 -6.28 -2.63 -17.56 -5.09 -8.31 -1.78 -11.11 -1.95 -29.94 -1.87 -17.56 0.08 -22.99 0.42 -34.78 2.29 -7.72 1.19 -14.33 1.95 -14.67 1.70 -0.42 -0.25 -0.59 -1.19 -0.34 -2.04 0.59 -2.04 -0.51 -2.04 -9.42 0.08 -8.82 2.12 -8.65 2.12 -8.65 -0.51 0 -1.70 -0.34 -2.12 -1.36 -1.70 -6.36 2.46 -23.67 10.18 -30.79 13.83 -10.18 5.17 -11.54 5.43 -10.77 2.38 0.34 -1.44 0.17 -2.12 -0.51 -2.12 -2.21 0 -20.70 13.23 -26.89 19.25 -6.11 5.94 -6.36 6.36 -4.83 7.46 0.93 0.68 2.29 1.27 3.05 1.27 0.76 0 3.73 1.53 6.62 3.31 5.43 3.56 10.52 9.25 14.25 16.20 1.27 2.38 2.63 4.24 3.05 4.24 1.36 0 8.57 -7.21 15.61 -15.78 7.21 -8.74 11.79 -12.72 19.42 -16.79 6.45 -3.39 7.21 -2.97 5.09 2.38 -0.59 1.36 -0.42 1.53 2.21 0.93 1.61 -0.34 10.86 -3.39 20.53 -6.87 20.44 -7.21 31.04 -9.67 42.41 -9.67 20.36 0 43.85 10.94 55.81 26.04 12.30 15.44 21.88 43.68 24 70.23 0.51 6.19 0.42 6.62 -0.76 5.17 -0.68 -0.93 -1.27 -2.04 -1.27 -2.38 0 -1.87 -9.58 -21.54 -13.15 -26.97 -17.56 -27.23 -48.52 -37.92 -79.14 -27.40 -2.54 0.85 -4.41 1.95 -4.24 2.38 0.08 0.51 2.54 1.44 5.34 2.21 10.09 2.63 21.97 9.50 27.91 16.03 5.51 6.11 4.58 6.28 -9.33 1.36 -14 -4.83 -24.34 -6.70 -38.08 -6.62 -14.50 0 -23.07 1.95 -37.75 8.65 -20.10 9.25 -33.33 13.49 -48.09 15.69 -5.17 0.76 -9.67 1.87 -10.43 2.54 -1.02 1.10 -0.51 1.27 4.24 1.27 3.05 0 14.67 0.93 25.87 2.12 32.32 3.31 48.86 2.63 70.40 -2.97 15.01 -3.90 29.52 -3.65 38.17 0.68 12.98 6.36 19.68 21.88 17.39 40.38 -0.68 5.85 -0.68 7.72 0.08 8.23 0.85 0.51 0.85 1.61 0.08 5 -0.59 2.38 -0.76 5.77 -0.51 7.46 1.02 6.53 -3.22 29.94 -7.63 42.16 -1.10 3.05 -1.53 5.17 -1.02 4.92 2.54 -1.53 18.58 -16.03 21.63 -19.51 1.95 -2.12 5.17 -6.53 7.13 -9.75 3.65 -5.85 5.68 -6.96 6.53 -3.39 0.25 1.10 0.85 1.95 1.27 1.95 1.53 0 10.35 -12.98 14.33 -21.04 4.75 -9.58 7.55 -17.73 9.50 -27.57 2.12 -10.94 3.90 -9.58 4.92 3.56 0.93 12.72 -1.87 28.25 -7.46 40.29 -6.53 14.08 -14.50 22.90 -39.10 43.26 -26.38 21.80 -39.70 36.22 -49.62 53.52 -11.20 19.59 -14.67 43 -8.99 60.14 3.73 11.03 9.58 22.73 11.11 22.14 0.68 -0.25 5.77 -3.82 11.20 -7.97z m-65.74 -18.41 c13.66 -20.36 16.71 -25.70 20.10 -35.46 8.57 -24.60 11.11 -50.55 8.06 -82.62 -0.68 -7.72 -1.19 -17.39 -1.02 -21.54 0.17 -6.28 0 -7.55 -1.02 -7.55 -2.63 0.08 -24.43 31.81 -37.24 54.12 -9.67 17.05 -10.18 18.15 -11.62 27.74 -1.53 9.58 -2.54 37.15 -1.44 41.14 l0.76 2.97 1.61 -2.80 c2.88 -4.75 3.48 -3.48 4.58 8.99 1.36 15.01 4.50 33.33 5.60 32.32 0.17 -0.17 5.43 -7.97 11.62 -17.30z m49.88 -136.65 c7.21 -20.53 9.50 -28.33 10.94 -38.25 1.02 -6.79 1.19 -16.46 0.42 -20.53 -0.68 -3.22 -2.63 -3.39 -3.82 -0.25 -1.53 4.07 -5.09 10.60 -10.26 18.58 -4.58 7.04 -5.17 8.57 -7.04 17.56 -2.46 11.62 -2.71 15.95 -0.85 15.27 1.02 -0.42 1.27 0.68 1.19 6.62 -0.08 6.70 1.61 21.54 2.29 20.78 0.17 -0.17 3.39 -9.08 7.13 -19.76z m-265.41 -64.72 c20.70 -11.96 56.07 -25.53 87.71 -33.50 4.67 -1.19 15.86 -3.65 24.77 -5.51 27.91 -5.85 70.23 -17.39 69.30 -18.92 -0.25 -0.34 -1.95 -0.68 -3.73 -0.68 -5.51 0 -7.38 -1.27 -11.54 -7.80 -4.41 -6.96 -9.50 -12.64 -13.74 -15.27 l-2.80 -1.78 -2.71 2.63 c-4.24 4.07 -16.29 11.62 -26.89 17.05 -10.26 5.26 -14.84 7.29 -47.92 21.29 -19.34 8.14 -47.75 21.71 -50.47 24.17 -0.68 0.59 -2.88 1.87 -4.92 2.88 -7.46 3.82 -23.33 15.52 -28.16 20.95 l-2.12 2.38 2.12 -1.27 c1.19 -0.76 6.19 -3.73 11.11 -6.62z m37.07 -3.14 c5 -1.61 10.26 -3.39 11.62 -3.82 21.12 -7.29 52.42 -14.93 74.39 -18.07 14.42 -2.12 16.03 -2.63 31.04 -10.26 7.80 -3.99 13.40 -7.04 12.47 -6.79 -0.93 0.17 -6.62 1.70 -12.64 3.39 -6.02 1.61 -19 4.67 -28.84 6.79 -29.01 6.28 -44.02 10.18 -61.58 16.12 -20.36 6.87 -46.65 17.90 -46.65 19.51 0 0.17 2.54 -0.59 5.60 -1.78 3.05 -1.10 9.67 -3.39 14.59 -5.09z m140.72 -31.72 c10.35 -3.05 17.81 -6.02 30.11 -11.79 21.38 -10.18 42.83 -12.04 67.01 -5.94 7.89 1.95 9.33 2.04 7.04 0.25 -2.71 -2.21 -12.04 -6.19 -17.64 -7.55 -8.74 -2.21 -10.77 -3.05 -10.77 -4.33 0 -3.05 15.86 -8.91 28.75 -10.60 17.22 -2.21 35.79 3.22 51.06 15.01 5.60 4.24 9.75 9.16 16.03 18.58 6.11 9.25 6.19 9.25 4.24 2.04 -5 -18.07 -12.47 -35.46 -18.24 -42.07 -8.14 -9.42 -32.40 -18.07 -50.81 -18.07 -12.38 0 -27.06 3.65 -38 9.50 -5.60 2.97 -12.55 8.91 -16.96 14.42 l-2.71 3.48 4.92 -0.59 c5.60 -0.76 7.29 0.17 7.29 3.82 0 4.67 -2.12 5.94 -22.39 12.72 -17.98 6.02 -46.57 19.42 -49.79 23.33 -1.02 1.27 -1.02 1.36 0.51 0.93 0.93 -0.34 5.60 -1.70 10.35 -3.14z m25.28 -30.54 c3.31 -0.51 6.70 -1.10 7.55 -1.36 2.97 -0.93 -0.68 -2.12 -8.40 -2.63 -3.99 -0.25 -7.21 -0.85 -7.21 -1.27 0 -1.61 8.82 -13.49 11.20 -15.27 1.44 -0.93 4.24 -2.38 6.36 -3.22 l3.82 -1.44 -2.63 -0.51 c-1.53 -0.34 -2.63 -1.10 -2.63 -1.87 0 -0.68 -0.51 -1.27 -1.02 -1.27 -2.29 0 -10.86 7.80 -17.05 15.52 -3.56 4.41 -8.14 9.42 -10.09 11.11 l-3.56 3.05 8.91 0 c4.83 0 11.54 -0.42 14.76 -0.85z m16.54 -16.96 c1.19 -2.21 0.42 -3.39 -2.04 -3.39 -2.38 0 -4.24 2.04 -3.56 3.82 0.68 1.87 4.50 1.61 5.60 -0.42z m23.58 -10.09 c15.78 -7.89 32.32 -11.71 46.40 -10.69 6.45 0.51 18.24 2.97 24.60 5.09 4.33 1.44 -2.46 -2.97 -8.23 -5.34 -9.67 -3.99 -19 -5.60 -29.52 -5 -10.77 0.68 -17.22 2.29 -36.13 8.99 -7.97 2.88 -14.84 5.17 -15.35 5.17 -0.51 0 -1.36 0.51 -1.95 1.19 -0.76 1.02 -0.42 1.44 2.29 2.12 3.05 0.76 6.53 1.36 9.84 1.70 0.76 0 4.41 -1.36 8.06 -3.22z"/>
  <path d="M310.87 455.49 c-1.53 -4.50 -2.38 -5.17 -3.73 -2.80 -0.76 1.44 -0.85 1.44 -2.46 -0.08 -3.14 -2.80 -12.04 -21.54 -12.04 -25.36 0 -4.67 25.45 -39.70 32.32 -44.53 2.71 -1.87 3.65 -0.25 6.70 10.86 2.97 10.60 6.62 20.10 11.88 30.54 1.87 3.73 3.39 7.13 3.39 7.63 0 0.51 -2.97 3.82 -6.62 7.46 -3.73 3.56 -8.14 8.31 -10.01 10.52 -3.90 4.67 -5.51 5.26 -6.28 2.38 -0.93 -3.73 -2.88 -2.88 -5.94 2.54 -3.73 6.36 -5.34 6.53 -7.21 0.85z m13.49 -15.18 c4.24 0.25 4.41 0.17 9.50 -4.92 l5.17 -5.09 -3.65 -7.13 c-3.73 -7.63 -7.89 -18.75 -9.58 -25.96 l-1.10 -4.33 -2.71 3.05 c-4.16 4.75 -9.75 12.38 -16.54 22.56 l-6.19 9.25 2.88 6.45 2.88 6.45 4.07 0.25 c2.54 0.17 4.16 0.68 4.41 1.53 1.27 4.16 1.19 4.16 3.90 0.85 2.46 -3.05 2.88 -3.22 6.96 -2.97z"/>
  <path d="M219.69 128.17 c0 -2.80 0.42 -3.73 2.80 -5.43 5 -3.82 7.97 -4.83 13.74 -4.83 l5.51 0 0 4.16 0 4.16 -7.97 2.63 c-4.33 1.44 -9.33 2.63 -11.03 2.63 -2.97 0 -3.05 -0.08 -3.05 -3.31z"/>
 </g>
 <g fill="#3a4a57">
  <path d="M418.51 819.97 c-11.71 -4.75 -24.68 -13.23 -32.49 -21.29 l-3.73 -3.82 2.21 -3.65 c1.19 -2.04 3.82 -5.51 5.94 -7.80 l3.90 -4.07 4.92 0.59 c10.01 1.19 12.30 3.73 18.15 19.68 2.63 7.04 6.62 16.03 9.92 22.56 0.59 1.19 -2.04 0.51 -8.82 -2.21z"/>
  <path d="M145.55 723.87 c-1.53 -4.07 0.17 -12.81 7.63 -37.41 11.71 -39.02 29.18 -84.57 44.36 -115.95 3.65 -7.46 11.96 -23.83 18.41 -36.22 6.53 -12.38 13.32 -26.21 15.18 -30.71 4.58 -11.03 5.94 -11.11 6.70 -0.34 0.34 4.24 1.53 16.20 2.63 26.46 3.39 30.88 5.43 52.33 6.02 63.36 l0.51 10.43 -5.60 12.72 c-21.12 47.67 -55.56 90.93 -84.23 105.77 -6.70 3.39 -10.77 4.07 -11.62 1.87z"/>
  <path d="M149.03 682.22 c6.11 -35.37 21.97 -82.28 49.88 -147 10.18 -23.58 27.48 -64.46 33.50 -79.48 2.54 -6.19 4.67 -11.11 4.75 -11.03 0.08 0.08 -0.08 8.40 -0.42 18.41 l-0.68 18.24 -3.82 10.18 c-5 13.06 -10.60 24.94 -23.67 49.62 -21.63 40.71 -35.96 74.81 -53.44 126.38 -5.09 15.27 -6.96 19.59 -6.11 14.67z"/>
  <path d="M522.16 602.32 c-2.46 -7.72 -5.26 -20.78 -6.11 -28.75 -0.59 -5.77 -1.19 -6.62 -3.65 -5.34 -1.53 0.85 -1.61 0.42 -2.21 -6.96 -0.76 -10.52 -3.22 -24.51 -6.28 -35.54 -1.87 -6.96 -2.12 -9.16 -1.27 -9.16 1.02 0 20.70 28.33 25.87 37.32 l2.29 3.82 -1.19 11.03 c-2.12 20.44 -4.41 39.61 -4.83 40.04 -0.25 0.25 -1.44 -2.63 -2.63 -6.45z"/>
  <path d="M316.13 106.71 c-0.68 -2.38 -0.51 -2.46 2.71 -1.87 2.54 0.51 2.63 0.68 1.27 2.12 -1.95 2.12 -3.39 2.04 -3.99 -0.25z"/>
 </g>
 <g fill="#d79033">
  <path d="M330.38 579.08 c0.93 -12.38 6.62 -47.08 9.42 -57.17 0.42 -1.53 0.17 -1.95 -1.02 -1.95 -0.85 0 -2.46 0.85 -3.56 1.95 l-2.12 1.87 0.59 -3.39 c2.12 -11.45 12.38 -36.73 20.53 -50.47 5.43 -9.08 6.28 -8.99 14.50 1.27 3.39 4.24 6.70 8.82 7.46 10.26 1.78 3.82 3.82 17.47 3.82 26.38 l0 7.80 -3.90 -4.16 c-2.46 -2.63 -4.67 -4.24 -5.85 -4.24 -1.78 0 -1.95 0.51 -2.46 7.89 -0.34 4.24 -0.85 9.25 -1.10 11.03 l-0.51 3.22 -2.63 -2.54 c-1.53 -1.44 -3.14 -2.63 -3.65 -2.63 -0.51 0 -1.61 2.21 -2.38 4.83 -2.12 7.29 -5.68 14.67 -11.79 24.34 -6.45 10.26 -11.03 19.17 -13.83 26.80 l-1.95 5.51 0.42 -6.62z"/>
  <path d="M286.19 572.80 c-7.13 -16.88 -10.77 -33.67 -11.37 -53.01 0 -1.61 -3.22 -0.51 -4.24 1.44 -0.68 1.27 -1.44 1.87 -1.87 1.44 -1.19 -1.19 -1.78 -27.06 -0.85 -35.54 0.85 -6.87 1.44 -8.91 5.43 -16.54 3.48 -6.70 4.92 -8.82 6.45 -8.99 1.02 -0.17 1.87 0 1.87 0.42 0 0.34 0.68 4.50 1.36 9.16 1.02 6.19 1.44 16.96 1.70 40.29 0.25 28.08 1.87 57.68 3.39 63.02 0.85 2.63 -0.42 1.53 -1.87 -1.70z"/>
  <path d="M313.42 452.78 c-0.34 -0.85 -1.10 -3.14 -1.70 -5.09 -1.27 -4.41 -4.24 -5.60 -5.17 -2.04 -0.25 1.19 -0.85 2.21 -1.19 2.21 -0.68 0 -8.14 -15.78 -8.99 -19.08 -0.42 -1.78 0.59 -3.90 6.02 -12.13 6.28 -9.33 13.49 -19.08 18.92 -25.53 3.73 -4.41 5.17 -3.48 7.46 5 2.54 9.84 5.43 17.22 10.35 26.80 l4.24 8.06 -8.31 8.48 c-4.58 4.58 -8.48 8.40 -8.74 8.40 -0.25 0 -0.59 -1.02 -0.76 -2.29 -0.51 -4.83 -4.07 -2.54 -10.18 6.53 -1.19 1.87 -1.44 1.95 -1.95 0.68z"/>
  <path d="M55.13 216.63 c0 -1.19 12.21 -15.61 17.47 -20.70 9.42 -8.99 20.44 -17.22 28.50 -21.29 2.04 -1.02 4.24 -2.29 4.92 -2.88 2.71 -2.46 31.13 -16.03 50.47 -24.17 33.08 -14 37.66 -16.03 47.92 -21.29 10.94 -5.60 22.65 -13.06 27.14 -17.39 3.73 -3.48 5.34 -3.56 10.26 -0.42 5 3.22 9.08 7.72 13.83 15.18 2.46 3.82 4.83 6.53 6.28 7.13 1.44 0.59 7.72 0.93 16.54 0.85 12.47 -0.08 14.17 0.08 13.32 1.10 -0.59 0.76 -2.54 1.27 -4.58 1.27 -1.87 0 -10.94 2.29 -20.02 5.17 -20.70 6.36 -44.36 12.55 -65.57 16.96 -36.73 7.63 -64.72 16.46 -93.13 29.18 -12.55 5.60 -35.29 18.83 -45.38 26.38 -7.29 5.43 -7.97 5.85 -7.97 4.92z m176.09 -90.33 c6.36 -2.12 7.97 -2.97 7.97 -4.24 0 -1.27 -0.59 -1.61 -2.97 -1.61 -4.24 0 -14 5.34 -14 7.72 0 1.10 0.17 1.02 8.99 -1.87z"/>
  <path d="M82.28 208.24 c12.04 -12.64 29.35 -21.63 64.38 -33.59 18.24 -6.19 33 -10.09 62.51 -16.46 23.33 -5 35.12 -8.23 61.83 -17.05 17.47 -5.77 22.39 -7.72 23.92 -9.50 1.87 -2.21 6.45 -3.99 18.75 -7.04 7.38 -1.87 10.52 -1.70 8.74 0.42 -1.44 1.70 -7.97 4.33 -19.85 8.06 -13.66 4.24 -18.41 6.36 -48.18 21.38 -13.91 6.87 -26.97 12.98 -29.09 13.49 -2.12 0.42 -7.97 1.44 -13.06 2.21 -21.97 3.14 -52.76 10.69 -74.39 18.07 -1.36 0.42 -7.29 2.46 -13.15 4.41 -13.23 4.41 -26.72 9.92 -37.75 15.35 l-8.48 4.24 3.82 -3.99z"/>
 </g>
</svg>